<svg xmlns="http://www.w3.org/2000/svg" width="2000" height="1782" viewBox="0 0 2000 1782">
  <defs>
    <style>
      .cls-1, .cls-2 {
        fill: #fff;
      }

      .cls-2 {
        fill-rule: evenodd;
      }
    </style>
  </defs>
  <circle class="cls-1" cx="1445.795" cy="1469.03" r="63.675"/>
  <circle id="Ellipse_2_copy" data-name="Ellipse 2 copy" class="cls-1" cx="895.282" cy="1130.19" r="63.656"/>
  <path id="Ellipse_2_copy_3" data-name="Ellipse 2 copy 3" class="cls-2" d="M254.73,848.436a77.657,77.657,0,1,1-77.818,77.655A77.736,77.736,0,0,1,254.73,848.436Z"/>
  <circle id="Ellipse_2_copy_2" data-name="Ellipse 2 copy 2" class="cls-1" cx="1326.17" cy="670.657" r="63.67"/>
  <path class="cls-2" d="M354.413,708.527c-6.285,59.592-246.669,283.072,64.313,508.293,16.832,12.19-101.614,1.28-101.614,1.28l-56.6,56.48S167.823,1176.6,206.5,984.494c2.9-14.4,58.667-243.275,56.595-291.37S358.7,667.872,354.413,708.527Z"/>
  <path class="cls-2" d="M571.789,1123.12S939.783,710.373,1823.3,1076.91c7.5,3.11-7.81,181.61-21.86,189.97s-633.65-232.52-1117.748,187.4c-13.906,12.06,238.1-351.69,688.138-361.97C1384.72,1092.02,1192.48,909.862,571.789,1123.12Z"/>
  <path class="cls-2" d="M889.49,1708.42s-124.318-54.49-174.929-159.16c-8.9-18.41,512.049-386.29,1049.579-157.88,25.64,10.9-342.46-121.31-670.14,115.52-21.36,15.44,297.21-52.15,526.08,166.87C1637.06,1690.02,1261.25,1473.37,889.49,1708.42Z"/>
  <path class="cls-2" d="M895.922,1718.69s42.43-34.3,82.32-41.07c13.448-2.29,146.378,98.3,382.018,71.88C1430.55,1741.62,1103.7,1845.56,895.922,1718.69Z"/>
  <path class="cls-2" d="M1.983,699.542L916.5,0,1996.95,166.863s-320.64,183.01-412.89,319.607c-4.1,6.069-105.47-187.4-105.47-187.4S922.16,125.188,513.908,560.917C503.487,572.04,520.339,757.3,520.339,757.3S401.006,681.805,1.983,699.542Z"/>
  <path class="cls-2" d="M1589.21,575.037L1454.15,310.622S859.656,177.3,543.53,567.335C537.2,575.142,557.64,851,557.64,851S819.331,190.614,1589.21,575.037Z"/>
  <path class="cls-2" d="M1520.89,590.721c7.87,1.786-755.673-327.84-938.319,395.591C577.2,1007.58,893.206,639.584,1773.14,926.733c12.09,3.946-278.17-214.822-830.913-207.938C912.793,719.162,1127.05,501.4,1520.89,590.721Z"/>
</svg>
