<?xml version="1.0" encoding="UTF-8"?>
<!DOCTYPE svg PUBLIC "-//W3C//DTD SVG 1.1//EN" "http://www.w3.org/Graphics/SVG/1.1/DTD/svg11.dtd">
<svg xmlns="http://www.w3.org/2000/svg" version="1.1" width="2000px" height="1488px" style="shape-rendering:geometricPrecision; text-rendering:geometricPrecision; image-rendering:optimizeQuality; fill-rule:evenodd; clip-rule:evenodd" xmlns:xlink="http://www.w3.org/1999/xlink">
<g><path style="opacity:0.992" fill="#fefffe" d="M 1999.5,413.5 C 1999.5,414.5 1999.5,415.5 1999.5,416.5C 1904.2,502.627 1809.04,588.96 1714,675.5C 1707.22,617.939 1701.05,560.273 1695.5,502.5C 1625.86,514.909 1557.2,531.409 1489.5,552C 1410.16,576.001 1331.99,603.168 1255,633.5C 1312.14,738.157 1320.47,846.824 1280,959.5C 1254.63,1024.96 1218.63,1083.62 1172,1135.5C 1101.91,1210.6 1021.41,1271.77 930.5,1319C 814.531,1378.64 692.531,1421.3 564.5,1447C 473.402,1465.92 381.402,1477.92 288.5,1483C 261.167,1483.67 233.833,1483.67 206.5,1483C 163.207,1481.88 121.54,1473.21 81.5,1457C 35.9247,1436.28 8.59132,1401.45 -0.5,1352.5C -0.5,1341.17 -0.5,1329.83 -0.5,1318.5C 6.72382,1280.38 21.8905,1245.72 45,1214.5C 69.1978,1181.62 96.3644,1151.12 126.5,1123C 180.268,1073.21 236.935,1027.21 296.5,985C 446.197,880.106 602.863,785.773 766.5,702C 845.98,661.426 926.313,622.759 1007.5,586C 926.175,538.887 838.842,521.887 745.5,535C 688.94,543.521 634.606,559.521 582.5,583C 476.72,632.484 382.22,697.984 299,779.5C 229,853.5 159,927.5 89,1001.5C 186.667,686.494 285.167,371.661 384.5,57C 494.726,23.801 607.393,6.30103 722.5,4.5C 782.042,2.69214 840.042,11.1921 896.5,30C 1004.29,71.6872 1055.13,150.521 1049,266.5C 1045.35,325.581 1025.19,378.081 988.5,424C 1049.95,446.539 1105.62,478.539 1155.5,520C 1156.73,520.781 1158.06,521.281 1159.5,521.5C 1295.51,466.107 1434.85,420.607 1577.5,385C 1611.58,376.818 1645.91,369.984 1680.5,364.5C 1675.13,310.494 1669.97,256.494 1665,202.5C 1776.3,273.23 1887.8,343.563 1999.5,413.5 Z M 694.5,142.5 C 738.632,140.487 782.299,143.987 825.5,153C 846.623,157.899 865.956,166.566 883.5,179C 903.42,196.563 912.753,218.729 911.5,245.5C 911.752,300.2 888.418,341.033 841.5,368C 819.245,380.307 795.579,388.641 770.5,393C 680.636,400.513 594.969,423.513 513.5,462C 466.842,483.735 422.342,508.902 380,537.5C 417.097,415.703 454.93,294.036 493.5,172.5C 541.454,160.451 590.12,151.951 639.5,147C 657.973,145.301 676.306,143.801 694.5,142.5 Z M 1122.5,686.5 C 1165.61,748.179 1177.11,815.513 1157,888.5C 1143.19,934.788 1121.53,976.788 1092,1014.5C 1054.62,1060.88 1011.79,1101.38 963.5,1136C 895.648,1183.43 822.648,1221.77 744.5,1251C 583.861,1309.59 418.027,1341.09 247,1345.5C 221.337,1345.88 195.837,1344.04 170.5,1340C 159.921,1337.94 149.588,1335.11 139.5,1331.5C 142.366,1321.1 146.866,1311.43 153,1302.5C 167.825,1281.67 184.159,1262 202,1243.5C 249.475,1197.56 299.642,1155.06 352.5,1116C 443.593,1049.94 537.927,988.603 635.5,932C 793.108,841.196 955.441,759.362 1122.5,686.5 Z"/></g>
</svg>
