<?xml version="1.0" encoding="UTF-8"?>
<!DOCTYPE svg PUBLIC "-//W3C//DTD SVG 1.1//EN" "http://www.w3.org/Graphics/SVG/1.1/DTD/svg11.dtd">
<svg xmlns="http://www.w3.org/2000/svg" version="1.1" width="1569px" height="1548px" style="shape-rendering:geometricPrecision; text-rendering:geometricPrecision; image-rendering:optimizeQuality; fill-rule:evenodd; clip-rule:evenodd" xmlns:xlink="http://www.w3.org/1999/xlink">
<g><path style="opacity:0.97" fill="#fefffe" d="M 1160.5,-0.5 C 1160.83,-0.5 1161.17,-0.5 1161.5,-0.5C 1167.82,12.807 1174.15,26.1404 1180.5,39.5C 1195.41,42.7749 1210.41,45.7749 1225.5,48.5C 1214.68,59.1547 1203.68,69.6547 1192.5,80C 1195.11,93.9107 1197.44,107.911 1199.5,122C 1199.17,122.833 1198.83,123.667 1198.5,124.5C 1185.62,117.229 1172.62,110.229 1159.5,103.5C 1145.8,109.764 1132.3,116.431 1119,123.5C 1121.72,108.242 1124.05,92.9082 1126,77.5C 1115.65,67.3192 1105.49,56.9859 1095.5,46.5C 1110.07,43.845 1124.74,41.6783 1139.5,40C 1146.91,26.6821 1153.91,13.1821 1160.5,-0.5 Z"/></g>
<g><path style="opacity:0.969" fill="#fefffe" d="M 514.5,6.5 C 521.726,19.9492 528.726,33.6159 535.5,47.5C 550.2,49.9501 564.867,52.6168 579.5,55.5C 569.178,65.6548 558.678,75.6548 548,85.5C 548.955,99.905 550.788,114.238 553.5,128.5C 553.167,129.5 552.833,130.5 552.5,131.5C 539.622,124.229 526.622,117.229 513.5,110.5C 500.203,117.149 486.87,123.815 473.5,130.5C 475.037,117.612 477.204,104.612 480,91.5C 480.667,89.1667 480.667,86.8333 480,84.5C 469.652,74.3192 459.486,63.9859 449.5,53.5C 464.476,51.0747 479.476,48.7414 494.5,46.5C 501.63,33.3781 508.297,20.0448 514.5,6.5 Z"/></g>
<g><path style="opacity:0.996" fill="#fefffe" d="M 1568.5,701.5 C 1568.5,785.833 1568.5,870.167 1568.5,954.5C 1566.08,960.089 1562.08,964.256 1556.5,967C 1525.62,972.07 1496.29,981.737 1468.5,996C 1416.47,1026.24 1396.64,1071.08 1409,1130.5C 1412.27,1145.3 1416.93,1159.63 1423,1173.5C 1429.35,1186.2 1435.68,1198.86 1442,1211.5C 1442.66,1215.57 1442.32,1219.57 1441,1223.5C 1438.05,1228.12 1434.72,1232.45 1431,1236.5C 1377.17,1293.67 1323.33,1350.83 1269.5,1408C 1263.96,1411.3 1257.96,1412.3 1251.5,1411C 1216.49,1397 1180.16,1389.16 1142.5,1387.5C 1067.92,1390.53 1015.75,1426.2 986,1494.5C 980.204,1508.55 975.204,1522.89 971,1537.5C 967.584,1542.44 963.084,1545.78 957.5,1547.5C 868.5,1547.5 779.5,1547.5 690.5,1547.5C 685.545,1546.26 681.378,1543.59 678,1539.5C 672.871,1523.78 667.538,1508.11 662,1492.5C 633.909,1426.14 583.742,1395.64 511.5,1401C 482.709,1404.11 455.043,1411.45 428.5,1423C 422.606,1424.04 416.939,1423.37 411.5,1421C 352.965,1358.13 294.799,1294.97 237,1231.5C 230.631,1224.93 228.631,1217.26 231,1208.5C 248.723,1177.33 260.056,1144 265,1108.5C 270.822,1056.32 251.656,1016.49 207.5,989C 177.275,973.442 145.275,963.442 111.5,959C 106.011,956.532 102.511,952.365 101,946.5C 100.008,856.777 100.341,767.11 102,677.5C 104.552,673.281 108.052,670.114 112.5,668C 150.399,661.374 185.399,647.708 217.5,627C 260.811,595.407 275.311,553.574 261,501.5C 252.382,474.266 240.049,448.932 224,425.5C 222,420.167 222,414.833 224,409.5C 227.285,404.546 230.952,399.88 235,395.5C 288.5,338.667 342,281.833 395.5,225C 400.166,222.249 405.166,221.249 410.5,222C 437.977,232.619 466.311,239.953 495.5,244C 580.08,252.639 640.58,218.805 677,142.5C 683.597,126.375 689.597,110.042 695,93.5C 697.99,90.5095 701.49,88.3428 705.5,87C 796.557,86.0076 887.557,86.341 978.5,88C 983.333,90.1667 986.833,93.6667 989,98.5C 1016.27,211.062 1086.1,252.896 1198.5,224C 1213.03,219.156 1227.53,214.323 1242,209.5C 1246.1,209.816 1249.93,210.983 1253.5,213C 1312.03,275.866 1370.2,339.033 1428,402.5C 1433.93,409.239 1435.6,416.905 1433,425.5C 1372.75,526.022 1393.25,605.189 1494.5,663C 1515.81,673.987 1537.81,683.321 1560.5,691C 1564.04,693.94 1566.7,697.44 1568.5,701.5 Z M 832.5,302.5 C 841.86,300.897 849.694,303.564 856,310.5C 874.579,334.417 893.912,357.75 914,380.5C 970.035,440.867 1025.7,501.533 1081,562.5C 1120.17,607.154 1154.17,655.488 1183,707.5C 1248.33,833.666 1244.66,957.666 1172,1079.5C 1165.99,1088.85 1159.49,1097.85 1152.5,1106.5C 1132.47,1085.31 1112.97,1063.64 1094,1041.5C 1065.78,1004.71 1045.78,963.715 1034,918.5C 1026.6,884.559 1016.27,851.559 1003,819.5C 992.894,797.394 976.394,782.228 953.5,774C 922.639,763.68 890.972,760.013 858.5,763C 852.374,765.38 848.041,769.546 845.5,775.5C 847.37,780.735 850.37,785.235 854.5,789C 878.496,801.994 901.83,815.994 924.5,831C 940.896,844.521 946.73,861.688 942,882.5C 933.904,916.908 914.737,943.075 884.5,961C 871.47,967.452 858.803,966.785 846.5,959C 819.5,941.162 791.833,924.329 763.5,908.5C 761.668,909.248 760.001,910.248 758.5,911.5C 760.395,919.141 762.229,926.808 764,934.5C 781.094,974.252 807.594,1006.09 843.5,1030C 851.481,1034.49 859.815,1038.16 868.5,1041C 911.798,1042.21 950.798,1055.54 985.5,1081C 999.597,1092.43 1013.1,1104.59 1026,1117.5C 1044.21,1137.37 1062.04,1157.54 1079.5,1178C 1008.06,1231.15 927.559,1257.98 838,1258.5C 714.916,1255.61 612.916,1208.28 532,1116.5C 469.503,1038.65 442.17,949.652 450,849.5C 457.422,792.901 475.422,739.901 504,690.5C 532.176,643.153 564.51,598.819 601,557.5C 658.333,494.833 715.667,432.167 773,369.5C 790.833,348.333 808.667,327.167 826.5,306C 828.727,305.059 830.727,303.892 832.5,302.5 Z"/></g>
<g><path style="opacity:0.97" fill="#fefffe" d="M -0.5,480.5 C -0.5,479.833 -0.5,479.167 -0.5,478.5C 14.5418,477.078 29.5418,475.245 44.5,473C 51.1181,459.596 58.1181,446.429 65.5,433.5C 72.3539,446.721 79.0205,460.054 85.5,473.5C 100.164,476.166 114.83,478.833 129.5,481.5C 119.485,492.349 108.985,502.682 98,512.5C 99.3588,526.348 101.192,540.182 103.5,554C 103.167,555.167 102.833,556.333 102.5,557.5C 89.7308,550.366 76.8975,543.366 64,536.5C 50.5273,542.903 37.1939,549.57 24,556.5C 25.5241,541.707 28.0241,527.04 31.5,512.5C 21.1457,501.479 10.479,490.812 -0.5,480.5 Z"/></g>
<g><path style="opacity:0.971" fill="#fefffe" d="M -0.5,1107.5 C -0.5,1106.83 -0.5,1106.17 -0.5,1105.5C 14.6278,1104.4 29.6278,1102.4 44.5,1099.5C 51.2617,1086.31 58.2617,1073.31 65.5,1060.5C 72.2947,1073.92 78.9614,1087.42 85.5,1101C 100.329,1103.25 114.996,1105.91 129.5,1109C 118.5,1119.33 107.5,1129.67 96.5,1140C 98.9342,1153.94 101.268,1167.94 103.5,1182C 103.167,1182.83 102.833,1183.67 102.5,1184.5C 89.3407,1177.75 76.3407,1170.75 63.5,1163.5C 50.1667,1170.17 36.8333,1176.83 23.5,1183.5C 23.1667,1183.17 22.8333,1182.83 22.5,1182.5C 25.7628,1167.92 28.2628,1153.26 30,1138.5C 20.3278,1127.66 10.1611,1117.33 -0.5,1107.5 Z"/></g>
</svg>
